# xmcd
#
# Track frame offsets:
#	150
#	20627
#	38249
#	52319
#	63523
#	78686
#	93708
#	111758
#	123751
#	140074
#	156843
#	167743
#	186243
#	200140
#	220479
#	235405
#	248552
#	262951
#	277017
#	289755
#	306633
#	327351
#
# Disc length: 4719 seconds
#
# Revision: 2
# Processed by: cddbd v1.5.2PL0 Copyright (c) Steve Scherf et al.
# Submitted via: EasyCDDAExtractor 16.0.8.2
#
DISCID=62126d16
DTITLE=Άνευ ερμηνευτού - Jazz collection 03-Count Basie
DYEAR=2010
DGENRE=Ξένη jazz
TTITLE0=Straight life
TTITLE1=Basie goes wess
TTITLE2=Softly with feeling
TTITLE3=Peace pipe
TTITLE4=Blues go away
TTITLE5=Cherry point
TTITLE6=Bubbles
TTITLE7=Right on
TTITLE8=The blues done come back
TTITLE9=Plymouth rock
TTITLE10=Stereophonic
TTITLE11=Mambo mist
TTITLE12=Sixteen men swinging
TTITLE13=She's just my sIze
TTITLE14=You 're not the kind
TTITLE15=I Feel like a new man
TTITLE16=You for me
TTITLE17=Soft drink
TTITLE18=Two for the blues
TTITLE19=Slow but sure
TTITLE20=Blues backstage
TTITLE21=Rails
EXTD=
EXTT0=
EXTT1=
EXTT2=
EXTT3=
EXTT4=
EXTT5=
EXTT6=
EXTT7=
EXTT8=
EXTT9=
EXTT10=
EXTT11=
EXTT12=
EXTT13=
EXTT14=
EXTT15=
EXTT16=
EXTT17=
EXTT18=
EXTT19=
EXTT20=
EXTT21=
PLAYORDER=
